<svg height="511pt" viewBox="-55 0 511 511.99991" width="511pt" xmlns="http://www.w3.org/2000/svg"><path d="m391.828125 3.515625c-5.433594-3.730469-12.351563-4.546875-18.5-2.183594l-93.074219 35.753907-70.898437-35.015626c-5.582031-2.757812-12.128907-2.757812-17.710938 0l-70.898437 35.015626-93.074219-35.753907c-6.148437-2.363281-13.066406-1.546875-18.496094 2.183594-5.433593 3.730469-8.675781 9.898437-8.675781 16.484375v472c0 6.585938 3.242188 12.753906 8.675781 16.484375 5.429688 3.730469 12.347657 4.546875 18.496094 2.183594l93.074219-35.753907 70.898437 35.015626c5.582031 2.757812 12.128907 2.757812 17.714844 0l70.894531-35.015626 93.074219 35.753907c6.03125 2.320312 12.964844 1.617187 18.5-2.183594 5.429687-3.730469 8.671875-9.898437 8.671875-16.484375v-472c0-6.585938-3.246094-12.753906-8.671875-16.484375zm-31.328125 459.375-74.078125-28.457031c-5.214844-2-11.023437-1.734375-16.03125.738281l-69.890625 34.523437-69.894531-34.523437c-4.90625-2.425781-10.714844-2.777344-16.027344-.738281l-74.078125 28.457031v-413.78125l74.078125 28.457031c5.210937 2.003906 11.023437 1.734375 16.027344-.738281l69.894531-34.519531 69.890625 34.519531c5.007813 2.472656 10.820313 2.742187 16.03125.738281l74.078125-28.457031zm-280-306.890625v80c0 11.046875 8.953125 20 20 20h200c11.046875 0 20-8.953125 20-20v-80c0-11.046875-8.953125-20-20-20h-200c-11.046875 0-20 8.953125-20 20zm40 20h160v40h-160zm200 130c0 11.046875-8.953125 20-20 20h-200c-11.046875 0-20-8.953125-20-20s8.953125-20 20-20h200c11.046875 0 20 8.953125 20 20zm0 0"/></svg>